<svg width="1876.6000000000001" height="1056.0" xmlns="http://www.w3.org/2000/svg" xmlns:xlink="http://www.w3.org/1999/xlink"><line x1="132.8125" y1="7.5" x2="113.8125" y2="32.0" style="stroke:black; stroke-width:1px;" />
<line x1="113.8125" y1="39.5" x2="89.3125" y2="64.0" style="stroke:black; stroke-width:1px;" />
<line x1="89.3125" y1="71.5" x2="60.5625" y2="96.0" style="stroke:black; stroke-width:1px;" />
<line x1="89.3125" y1="71.5" x2="94.0625" y2="96.0" style="stroke:black; stroke-width:1px;" />
<line x1="94.0625" y1="103.5" x2="37.0" y2="128.0" style="stroke:black; stroke-width:1px;" />
<line x1="37.0" y1="135.5" x2="13.0" y2="160.0" style="stroke:black; stroke-width:1px;" />
<line x1="13.0" y1="167.5" x2="13.0" y2="192.0" style="stroke:black; stroke-width:1px;" />
<line x1="37.0" y1="135.5" x2="37.0" y2="160.0" style="stroke:black; stroke-width:1px;" />
<line x1="37.0" y1="135.5" x2="61.0" y2="160.0" style="stroke:black; stroke-width:1px;" />
<line x1="61.0" y1="167.5" x2="61.0" y2="192.0" style="stroke:black; stroke-width:1px;" />
<line x1="94.0625" y1="103.5" x2="94.0625" y2="128.0" style="stroke:black; stroke-width:1px;" />
<line x1="94.0625" y1="103.5" x2="151.125" y2="128.0" style="stroke:black; stroke-width:1px;" />
<line x1="151.125" y1="135.5" x2="110.25" y2="160.0" style="stroke:black; stroke-width:1px;" />
<line x1="110.25" y1="167.5" x2="86.0" y2="192.0" style="stroke:black; stroke-width:1px;" />
<line x1="86.0" y1="199.5" x2="62.5" y2="224.0" style="stroke:black; stroke-width:1px;" />
<line x1="62.5" y1="231.5" x2="62.5" y2="256.0" style="stroke:black; stroke-width:1px;" />
<line x1="86.0" y1="199.5" x2="86.0" y2="224.0" style="stroke:black; stroke-width:1px;" />
<line x1="86.0" y1="199.5" x2="109.5" y2="224.0" style="stroke:black; stroke-width:1px;" />
<line x1="109.5" y1="231.5" x2="109.5" y2="256.0" style="stroke:black; stroke-width:1px;" />
<line x1="110.25" y1="167.5" x2="110.25" y2="192.0" style="stroke:black; stroke-width:1px;" />
<line x1="110.25" y1="167.5" x2="134.5" y2="192.0" style="stroke:black; stroke-width:1px;" />
<line x1="134.5" y1="199.5" x2="134.5" y2="224.0" style="stroke:black; stroke-width:1px;" />
<line x1="151.125" y1="135.5" x2="151.125" y2="160.0" style="stroke:black; stroke-width:1px;" />
<line x1="151.125" y1="135.5" x2="192.0" y2="160.0" style="stroke:black; stroke-width:1px;" />
<line x1="192.0" y1="167.5" x2="167.5" y2="192.0" style="stroke:black; stroke-width:1px;" />
<line x1="167.5" y1="199.5" x2="167.5" y2="224.0" style="stroke:black; stroke-width:1px;" />
<line x1="192.0" y1="167.5" x2="192.0" y2="192.0" style="stroke:black; stroke-width:1px;" />
<line x1="192.0" y1="167.5" x2="216.5" y2="192.0" style="stroke:black; stroke-width:1px;" />
<line x1="216.5" y1="199.5" x2="216.5" y2="224.0" style="stroke:black; stroke-width:1px;" />
<line x1="89.3125" y1="71.5" x2="118.0625" y2="96.0" style="stroke:black; stroke-width:1px;" />
<line x1="113.8125" y1="39.5" x2="113.8125" y2="64.0" style="stroke:black; stroke-width:1px;" />
<line x1="113.8125" y1="39.5" x2="138.3125" y2="64.0" style="stroke:black; stroke-width:1px;" />
<line x1="138.3125" y1="71.5" x2="138.3125" y2="96.0" style="stroke:black; stroke-width:1px;" />
<line x1="132.8125" y1="7.5" x2="151.8125" y2="32.0" style="stroke:black; stroke-width:1px;" />
<rect x="133.3125" y="96.0" width="10.0" height="15.0" style="fill:orange; stroke:rgb(0,0,0);" rx="1"/>
<text x="135" y="105" style="font-family:sans-serif;font-size:10px;">
2
</text>
<rect x="56.0" y="192.0" width="10.0" height="15.0" style="fill:orange; stroke:rgb(0,0,0);" rx="1"/>
<text x="58" y="201" style="font-family:sans-serif;font-size:10px;">
3
</text>
<rect x="73.0" y="192.0" width="26.0" height="15.0" style="fill:orange; stroke:rgb(0,0,0);" rx="1"/>
<text x="75" y="201" style="font-family:sans-serif;font-size:10px;">
expr
</text>
<rect x="0.0" y="160.0" width="26.0" height="15.0" style="fill:orange; stroke:rgb(0,0,0);" rx="1"/>
<text x="2" y="169" style="font-family:sans-serif;font-size:10px;">
expr
</text>
<rect x="49.5" y="224.0" width="26.0" height="15.0" style="fill:orange; stroke:rgb(0,0,0);" rx="1"/>
<text x="51" y="233" style="font-family:sans-serif;font-size:10px;">
expr
</text>
<rect x="100.8125" y="32.0" width="26.0" height="15.0" style="fill:orange; stroke:rgb(0,0,0);" rx="1"/>
<text x="102" y="41" style="font-family:sans-serif;font-size:10px;">
expr
</text>
<rect x="48.0" y="160.0" width="26.0" height="15.0" style="fill:orange; stroke:rgb(0,0,0);" rx="1"/>
<text x="50" y="169" style="font-family:sans-serif;font-size:10px;">
expr
</text>
<rect x="96.5" y="224.0" width="26.0" height="15.0" style="fill:orange; stroke:rgb(0,0,0);" rx="1"/>
<text x="98" y="233" style="font-family:sans-serif;font-size:10px;">
expr
</text>
<rect x="106.75" y="192.0" width="7.0" height="15.0" style="fill:orange; stroke:rgb(0,0,0);" rx="1"/>
<text x="108" y="201" style="font-family:sans-serif;font-size:10px;">
/
</text>
<rect x="109.3125" y="64.0" width="9.0" height="15.0" style="fill:orange; stroke:rgb(0,0,0);" rx="1"/>
<text x="111" y="73" style="font-family:sans-serif;font-size:10px;">
^
</text>
<rect x="133.8125" y="32.0" width="36.0" height="15.0" style="fill:orange; stroke:rgb(0,0,0);" rx="1"/>
<text x="135" y="41" style="font-family:sans-serif;font-size:10px;">
&lt;EOF&gt;
</text>
<rect x="104.5" y="256.0" width="10.0" height="15.0" style="fill:orange; stroke:rgb(0,0,0);" rx="1"/>
<text x="106" y="265" style="font-family:sans-serif;font-size:10px;">
2
</text>
<rect x="138.125" y="128.0" width="26.0" height="15.0" style="fill:orange; stroke:rgb(0,0,0);" rx="1"/>
<text x="140" y="137" style="font-family:sans-serif;font-size:10px;">
expr
</text>
<rect x="24.0" y="128.0" width="26.0" height="15.0" style="fill:orange; stroke:rgb(0,0,0);" rx="1"/>
<text x="26" y="137" style="font-family:sans-serif;font-size:10px;">
expr
</text>
<rect x="82.5" y="224.0" width="7.0" height="15.0" style="fill:orange; stroke:rgb(0,0,0);" rx="1"/>
<text x="84" y="233" style="font-family:sans-serif;font-size:10px;">
/
</text>
<rect x="76.3125" y="64.0" width="26.0" height="15.0" style="fill:orange; stroke:rgb(0,0,0);" rx="1"/>
<text x="78" y="73" style="font-family:sans-serif;font-size:10px;">
expr
</text>
<rect x="47.0625" y="96.0" width="27.0" height="15.0" style="fill:orange; stroke:rgb(0,0,0);" rx="1"/>
<text x="49" y="105" style="font-family:sans-serif;font-size:10px;">
sqrt(
</text>
<rect x="121.5" y="192.0" width="26.0" height="15.0" style="fill:orange; stroke:rgb(0,0,0);" rx="1"/>
<text x="123" y="201" style="font-family:sans-serif;font-size:10px;">
expr
</text>
<rect x="179.0" y="160.0" width="26.0" height="15.0" style="fill:orange; stroke:rgb(0,0,0);" rx="1"/>
<text x="181" y="169" style="font-family:sans-serif;font-size:10px;">
expr
</text>
<rect x="54.5" y="256.0" width="16.0" height="15.0" style="fill:orange; stroke:rgb(0,0,0);" rx="1"/>
<text x="56" y="265" style="font-family:sans-serif;font-size:10px;">
32
</text>
<rect x="154.5" y="192.0" width="26.0" height="15.0" style="fill:orange; stroke:rgb(0,0,0);" rx="1"/>
<text x="156" y="201" style="font-family:sans-serif;font-size:10px;">
expr
</text>
<rect x="211.5" y="224.0" width="10.0" height="15.0" style="fill:orange; stroke:rgb(0,0,0);" rx="1"/>
<text x="213" y="233" style="font-family:sans-serif;font-size:10px;">
2
</text>
<rect x="33.0" y="160.0" width="8.0" height="15.0" style="fill:orange; stroke:rgb(0,0,0);" rx="1"/>
<text x="35" y="169" style="font-family:sans-serif;font-size:10px;">
-
</text>
<rect x="89.0625" y="128.0" width="10.0" height="15.0" style="fill:orange; stroke:rgb(0,0,0);" rx="1"/>
<text x="91" y="137" style="font-family:sans-serif;font-size:10px;">
+
</text>
<rect x="187.5" y="192.0" width="9.0" height="15.0" style="fill:orange; stroke:rgb(0,0,0);" rx="1"/>
<text x="189" y="201" style="font-family:sans-serif;font-size:10px;">
^
</text>
<rect x="162.5" y="224.0" width="10.0" height="15.0" style="fill:orange; stroke:rgb(0,0,0);" rx="1"/>
<text x="164" y="233" style="font-family:sans-serif;font-size:10px;">
2
</text>
<rect x="119.8125" y="0.0" width="26.0" height="15.0" style="fill:orange; stroke:rgb(0,0,0);" rx="1"/>
<text x="121" y="9" style="font-family:sans-serif;font-size:10px;">
start
</text>
<rect x="5.0" y="192.0" width="16.0" height="15.0" style="fill:orange; stroke:rgb(0,0,0);" rx="1"/>
<text x="7" y="201" style="font-family:sans-serif;font-size:10px;">
29
</text>
<rect x="147.125" y="160.0" width="8.0" height="15.0" style="fill:orange; stroke:rgb(0,0,0);" rx="1"/>
<text x="149" y="169" style="font-family:sans-serif;font-size:10px;">
*
</text>
<rect x="81.0625" y="96.0" width="26.0" height="15.0" style="fill:orange; stroke:rgb(0,0,0);" rx="1"/>
<text x="83" y="105" style="font-family:sans-serif;font-size:10px;">
expr
</text>
<rect x="203.5" y="192.0" width="26.0" height="15.0" style="fill:orange; stroke:rgb(0,0,0);" rx="1"/>
<text x="205" y="201" style="font-family:sans-serif;font-size:10px;">
expr
</text>
<rect x="114.0625" y="96.0" width="8.0" height="15.0" style="fill:orange; stroke:rgb(0,0,0);" rx="1"/>
<text x="116" y="105" style="font-family:sans-serif;font-size:10px;">
)
</text>
<rect x="129.5" y="224.0" width="10.0" height="15.0" style="fill:orange; stroke:rgb(0,0,0);" rx="1"/>
<text x="131" y="233" style="font-family:sans-serif;font-size:10px;">
4
</text>
<rect x="125.3125" y="64.0" width="26.0" height="15.0" style="fill:orange; stroke:rgb(0,0,0);" rx="1"/>
<text x="127" y="73" style="font-family:sans-serif;font-size:10px;">
expr
</text>
<rect x="97.25" y="160.0" width="26.0" height="15.0" style="fill:orange; stroke:rgb(0,0,0);" rx="1"/>
<text x="99" y="169" style="font-family:sans-serif;font-size:10px;">
expr
</text>
</svg>